<?xml version="1.0" standalone="no"?>
<!DOCTYPE svg PUBLIC "-//W3C//DTD SVG 20010904//EN"
 "http://www.w3.org/TR/2001/REC-SVG-20010904/DTD/svg10.dtd">
<svg version="1.0" xmlns="http://www.w3.org/2000/svg"
 width="2000.000000pt" height="2000.000000pt" viewBox="0 0 2000.000000 2000.000000"
 preserveAspectRatio="xMidYMid meet">
<metadata>
Created by potrace 1.14, written by Peter Selinger 2001-2017
</metadata>
<g transform="translate(0.000000,2000.000000) scale(0.100000,-0.100000)"
fill="#000000" stroke="none">
<path d="M9766 17027 c-36 -48 -52 -91 -75 -203 -22 -111 -33 -225 -35 -361 0
-51 -3 -93 -6 -93 -3 0 -14 32 -24 72 -56 217 -134 404 -195 468 -33 34 -42
39 -62 32 -49 -18 -97 -141 -143 -362 -32 -155 -34 -168 -35 -204 -1 -42 -9
-28 -16 29 -33 260 -94 452 -165 520 -61 59 -135 28 -161 -68 -17 -63 -13
-274 6 -347 2 -8 6 -37 9 -63 17 -150 72 -422 112 -554 77 -256 184 -360 276
-268 61 61 155 324 192 539 3 16 7 30 9 32 2 3 17 -33 32 -78 37 -110 92 -239
138 -320 39 -70 108 -147 132 -149 8 -1 21 -2 28 -3 59 -9 120 110 151 294 13
75 28 188 31 233 2 29 9 113 16 187 16 186 14 418 -5 505 -30 141 -69 195
-141 195 -38 0 -47 -4 -69 -33z"/>
<path d="M12304 16744 c-62 -40 -131 -156 -207 -350 -50 -130 -50 -128 -53
-139 -1 -5 -38 -107 -82 -225 -77 -208 -116 -324 -127 -379 -34 -166 -23 -235
42 -247 46 -9 77 1 117 37 l35 30 19 -45 c27 -60 100 -128 160 -149 93 -34
186 -19 276 42 101 70 224 237 286 388 120 297 36 531 -191 527 -75 -2 -151
-24 -204 -59 l-35 -25 6 28 c4 15 10 32 14 37 8 10 29 71 63 180 57 185 49
332 -19 364 -37 16 -56 14 -100 -15z m201 -811 c8 -10 15 -22 15 -28 1 -5 3
-18 5 -28 13 -70 -79 -232 -156 -273 -61 -31 -165 30 -197 116 -8 20 -2 40 29
102 33 65 46 81 82 100 91 47 192 52 222 11z"/>
<path d="M10944 16732 c-243 -71 -427 -458 -358 -755 18 -76 74 -191 114 -234
118 -125 253 -149 425 -75 125 54 214 147 228 241 5 29 1 39 -29 69 -30 30
-38 33 -76 29 -24 -2 -78 -21 -120 -42 -92 -44 -142 -50 -196 -23 -41 19 -79
75 -63 91 5 5 38 10 75 13 113 6 242 68 317 151 186 206 101 495 -158 542 -68
13 -96 12 -159 -7z m148 -251 c3 0 10 -13 16 -28 29 -84 -26 -130 -185 -157
-40 -7 -41 1 -9 69 45 97 96 130 178 116z"/>
<path d="M7085 16178 c-266 -96 -345 -476 -130 -625 17 -11 68 -40 115 -64
116 -58 139 -76 150 -121 14 -48 0 -76 -75 -153 -76 -78 -90 -118 -63 -191 13
-37 69 -72 108 -69 235 18 420 361 320 593 -36 82 -103 130 -210 148 -98 17
-150 63 -150 132 0 35 20 87 47 122 11 14 31 44 45 68 32 54 25 103 -22 145
-33 29 -79 35 -135 15z"/>
<path d="M13834 15881 c-175 -47 -360 -175 -514 -356 -75 -89 -148 -235 -175
-350 -4 -16 -9 -39 -12 -50 -2 -11 -6 -58 -7 -105 -5 -136 33 -242 111 -311
119 -104 294 -113 475 -24 56 27 193 126 214 153 9 12 15 12 34 2 78 -42 227
48 214 128 -13 80 -180 221 -324 276 -60 23 -138 27 -173 9 -33 -16 -67 -68
-67 -101 0 -30 23 -82 48 -108 20 -21 20 -23 4 -38 -26 -22 -87 -46 -119 -46
-40 1 -95 31 -110 60 -42 80 47 253 215 419 157 154 301 213 381 154 42 -32
38 -56 -23 -150 -67 -103 -71 -135 -25 -188 40 -45 93 -62 144 -45 72 24 185
159 223 268 50 142 -23 303 -170 375 -101 49 -225 59 -344 28z"/>
<path d="M5903 15365 c-78 -28 -123 -56 -167 -105 -122 -135 -155 -299 -80
-397 21 -28 32 -33 65 -33 63 0 92 27 134 128 50 121 90 161 160 164 34 1 101
-39 112 -68 4 -11 -51 -91 -78 -114 -16 -13 -91 -150 -109 -197 -70 -187 -31
-328 112 -400 62 -32 173 -43 234 -23 76 25 176 144 205 243 15 51 20 55 40
31 35 -42 96 -54 154 -30 63 27 86 100 54 179 -35 88 -193 294 -318 416 -210
203 -361 263 -518 206z m414 -532 l40 -48 -21 -45 c-32 -68 -62 -106 -97 -120
-29 -13 -33 -12 -50 9 -23 29 -23 61 -1 126 16 46 68 125 83 125 3 0 24 -21
46 -47z"/>
<path d="M14815 14725 c-94 -25 -161 -55 -235 -104 -143 -96 -238 -215 -283
-357 -35 -107 -32 -235 6 -311 45 -88 120 -149 219 -178 79 -22 96 -25 163
-26 133 -2 225 50 225 126 0 63 -42 94 -161 121 -79 18 -112 31 -145 61 -38
34 -53 97 -31 138 l13 27 30 -25 c105 -88 289 -127 419 -90 250 73 332 333
164 517 -73 80 -131 107 -243 111 -56 2 -110 -1 -141 -10z m158 -254 c10 -1
29 -13 42 -27 20 -21 22 -30 14 -54 -26 -72 -93 -82 -197 -29 -36 19 -65 38
-66 43 -1 10 88 61 120 69 10 2 30 3 44 2 14 -2 33 -4 43 -4z"/>
<path d="M5001 14559 c-49 -52 -49 -207 0 -398 25 -99 25 -103 -6 -91 -14 5
-36 12 -48 14 -12 2 -44 9 -72 16 -56 13 -144 15 -198 5 -43 -8 -97 -63 -97
-98 2 -80 112 -141 394 -214 l68 -18 48 -138 c84 -244 128 -312 200 -312 46 0
76 29 86 83 7 35 -1 222 -11 277 -14 72 -23 67 115 70 69 1 138 6 155 10 38 8
91 41 99 61 16 41 -3 101 -38 126 -18 13 -114 47 -148 53 -18 4 -51 10 -73 15
-22 4 -66 11 -97 15 l-57 6 -46 142 c-26 78 -49 149 -52 157 -3 8 -7 20 -8 25
-13 50 -64 153 -90 181 -36 38 -95 44 -124 13z"/>
<path d="M9749 14136 c-2 -2 -46 -7 -97 -10 -51 -4 -101 -9 -110 -10 -9 -2
-44 -7 -77 -10 -65 -8 -106 -14 -145 -21 -14 -3 -41 -7 -60 -10 -143 -23 -446
-102 -614 -161 -604 -210 -1145 -552 -1586 -1002 -182 -185 -246 -259 -372
-427 -158 -211 -291 -429 -405 -660 -51 -105 -126 -270 -129 -285 -1 -7 -14
-42 -25 -65 -36 -81 -130 -391 -168 -555 -19 -84 -65 -352 -75 -440 -28 -246
-29 -726 -2 -935 2 -16 7 -57 11 -90 4 -32 8 -67 10 -76 2 -9 6 -34 10 -55 11
-71 16 -98 31 -169 8 -38 17 -81 20 -95 3 -14 7 -33 10 -42 3 -9 6 -25 8 -35
2 -10 18 -66 35 -124 124 -426 306 -815 551 -1179 35 -52 67 -99 72 -105 4 -5
63 -79 130 -164 150 -191 427 -472 603 -614 349 -281 777 -530 1140 -663 22
-8 65 -24 95 -35 56 -21 233 -78 260 -84 8 -2 51 -13 96 -24 45 -12 90 -23
100 -26 10 -2 51 -10 89 -19 154 -33 325 -58 504 -73 171 -15 690 -8 801 11
14 2 52 7 85 11 32 4 67 8 76 10 9 2 34 6 55 10 79 12 102 16 233 46 73 16
137 31 141 34 4 2 20 6 36 9 52 9 218 63 384 124 250 91 576 259 825 425 82
55 283 202 295 216 3 3 28 24 55 46 84 67 124 104 280 260 182 183 195 197
323 357 306 385 562 868 704 1328 22 72 66 232 74 269 3 12 12 53 20 90 9 36
17 75 19 86 2 11 8 47 14 80 6 33 13 74 15 90 3 17 8 55 12 85 3 30 7 66 10
80 26 160 26 701 0 915 -2 11 -6 49 -11 85 -4 36 -9 74 -11 85 -2 10 -6 35 -9
55 -6 40 -10 64 -25 135 -6 28 -12 59 -14 70 -55 282 -198 683 -352 987 -95
186 -296 510 -377 608 -7 8 -35 44 -62 80 -28 36 -54 70 -60 76 -5 6 -37 42
-69 80 -62 71 -310 322 -381 385 -327 288 -724 539 -1110 704 -60 25 -119 50
-130 55 -11 5 -58 22 -105 38 -47 16 -112 39 -145 50 -79 28 -359 99 -460 117
-44 8 -91 17 -104 19 -13 3 -49 8 -80 11 -31 4 -63 8 -71 10 -8 2 -46 7 -85
11 -38 3 -79 9 -90 11 -23 6 -610 14 -616 9z"/>
<path d="M15765 13693 c-63 -14 -69 -16 -150 -54 -72 -34 -259 -141 -263 -151
-2 -4 -8 -8 -14 -8 -5 0 -55 -31 -111 -69 -180 -123 -275 -237 -261 -311 7
-32 54 -79 82 -81 57 -5 70 -3 102 12 19 10 87 54 150 99 151 107 189 129 257
147 61 16 143 20 162 9 20 -13 11 -45 -21 -79 -35 -35 -163 -121 -263 -177
-194 -108 -301 -211 -289 -279 9 -46 35 -63 98 -62 31 0 61 3 66 6 6 3 18 8
27 10 40 8 144 52 264 111 164 82 219 103 284 110 59 7 95 -7 95 -36 0 -26
-63 -77 -156 -127 -180 -98 -222 -121 -285 -161 -67 -43 -148 -121 -150 -144
0 -7 -2 -21 -4 -30 -5 -27 48 -78 82 -79 75 -3 136 9 218 42 53 22 120 54 145
69 8 5 56 33 105 61 149 86 235 148 315 228 82 81 118 148 106 195 -16 63
-113 131 -204 142 -39 5 -67 9 -91 13 -3 1 7 13 21 29 52 56 80 133 68 186
-17 75 -95 133 -222 165 -55 14 -67 20 -50 25 59 19 82 111 40 161 -31 36 -80
45 -153 28z"/>
<path d="M4120 13336 c-71 -15 -108 -35 -160 -87 -138 -137 -130 -348 21 -540
283 -357 809 -383 923 -44 20 57 20 193 1 266 -19 71 -66 149 -108 180 -32 23
-42 26 -74 19 -69 -16 -78 -35 -79 -173 -1 -67 -2 -132 -3 -144 0 -12 -18 -40
-39 -63 -33 -34 -45 -40 -80 -40 -23 0 -42 1 -42 3 0 1 9 31 20 67 68 217 -27
460 -211 539 -61 26 -105 30 -169 17z m110 -261 c28 -15 32 -21 45 -79 8 -36
-14 -166 -29 -166 -5 0 -32 23 -58 51 -47 50 -71 104 -63 144 2 11 4 23 4 27
2 15 34 38 52 38 11 0 33 -7 49 -15z"/>
<path d="M3283 12438 c-62 -44 -113 -178 -157 -408 -33 -173 -32 -370 3 -447
24 -54 69 -93 107 -93 58 0 137 104 165 218 11 46 15 51 33 46 12 -3 136 -46
276 -94 443 -152 569 -189 640 -186 101 5 146 50 141 143 -1 30 -62 96 -110
122 -22 11 -119 45 -217 76 -186 59 -442 156 -583 222 l-83 38 -2 100 c-4 150
-37 239 -101 269 -45 22 -75 20 -112 -6z"/>
<path d="M16429 12053 c-73 -19 -110 -50 -204 -176 -100 -133 -112 -142 -182
-138 -24 1 -70 41 -99 87 -43 66 -102 111 -144 109 -84 -5 -124 -44 -127 -121
-5 -175 175 -357 388 -394 160 -28 267 33 324 183 37 96 67 127 129 134 51 6
82 -10 161 -82 69 -63 81 -68 130 -61 87 13 113 80 79 197 -55 185 -270 309
-455 262z"/>
<path d="M3533 9852 c-91 -47 -120 -135 -77 -228 33 -70 142 -106 212 -70 41
21 80 64 87 96 12 58 12 67 0 103 -17 50 -41 76 -92 99 -47 21 -89 21 -130 0z"/>
<path d="M16500 9848 c-49 -25 -79 -68 -90 -130 -11 -56 26 -126 81 -157 130
-74 278 44 239 190 -26 96 -138 144 -230 97z"/>
<path d="M4236 8078 c-3 -13 -6 -33 -6 -44 0 -12 -6 -27 -14 -33 -11 -10 -145
-54 -241 -81 -16 -4 -88 -26 -160 -49 l-129 -41 -32 35 c-57 65 -57 53 2 -133
51 -162 59 -169 66 -61 l2 37 105 32 c58 18 111 34 117 37 5 2 18 -22 28 -54
48 -154 149 -256 244 -248 124 10 182 136 136 296 -33 115 -97 314 -104 322
-4 5 -10 -2 -14 -15z m45 -265 c23 -98 12 -158 -37 -189 -37 -25 -112 -24
-147 1 -30 22 -71 92 -81 141 l-7 30 113 36 c62 20 120 37 129 37 11 1 20 -16
30 -56z"/>
<path d="M16122 7950 c-37 -23 -71 -88 -72 -136 0 -17 7 -51 15 -74 8 -23 15
-44 15 -46 0 -3 -22 3 -199 60 -79 26 -146 44 -149 42 -7 -7 -6 -176 1 -183 3
-3 19 4 35 16 38 27 37 27 141 -8 47 -16 167 -54 266 -85 99 -31 186 -60 194
-64 8 -5 16 -21 18 -38 8 -57 21 -44 50 48 51 158 52 169 4 124 l-26 -23 -143
46 c-78 25 -147 52 -151 60 -18 28 9 124 37 137 35 15 50 13 162 -22 144 -45
160 -52 160 -78 0 -25 15 -52 22 -40 15 27 70 225 65 231 -4 3 -17 -6 -30 -21
l-24 -27 -149 46 c-186 59 -200 61 -242 35z"/>
<path d="M15945 7468 c-3 -7 -14 -40 -25 -72 -11 -33 -26 -67 -34 -75 -65 -73
-82 -196 -38 -259 41 -57 126 -82 181 -53 27 15 41 7 41 -25 0 -80 104 -118
163 -60 14 14 16 13 22 -17 4 -17 9 -40 11 -50 7 -22 55 -47 91 -47 36 0 89
33 98 59 3 12 11 21 16 21 5 0 9 6 9 13 0 8 7 28 16 46 74 149 -20 338 -155
310 -49 -10 -77 -44 -124 -149 -47 -104 -62 -120 -101 -102 -24 11 -38 52 -18
52 5 0 19 21 32 46 63 128 -9 274 -131 262 -21 -2 -39 -2 -39 0 0 1 9 21 21
43 11 23 19 42 17 44 -2 1 -13 8 -26 14 -17 9 -23 9 -27 -1z m62 -204 c60 -20
96 -56 95 -96 -1 -39 -16 -56 -63 -68 -30 -8 -46 -7 -76 5 -50 21 -93 63 -93
91 0 28 35 72 63 77 12 2 23 5 24 6 1 0 24 -6 50 -15z m440 -137 c8 -8 20 -31
28 -53 25 -75 -33 -184 -99 -184 -40 0 -94 33 -101 63 -7 24 43 148 73 180 19
21 76 18 99 -6z"/>
<path d="M4229 7420 c-1 -5 -2 -19 -3 -30 -2 -30 -21 -42 -168 -105 -164 -70
-183 -86 -183 -159 0 -67 36 -126 94 -152 37 -17 53 -34 33 -34 -5 0 -16 -6
-26 -13 -17 -13 -17 -17 13 -84 17 -39 31 -77 31 -83 0 -27 24 -1 28 31 2 19
7 37 10 40 4 3 84 38 177 78 94 39 176 75 183 80 11 7 7 24 -21 87 -19 44 -38
79 -43 79 -5 0 -10 -16 -12 -36 -3 -35 -6 -38 -80 -69 -42 -18 -95 -40 -117
-50 -93 -40 -91 -40 -114 -19 -51 48 -61 119 -21 149 11 9 84 42 160 74 77 32
140 61 140 65 0 3 -14 41 -31 84 -28 69 -47 94 -50 67z"/>
<path d="M15670 6859 c-23 -44 -39 -83 -36 -86 3 -3 20 4 38 15 l34 21 43 -25
c25 -13 84 -45 132 -71 48 -25 90 -51 93 -59 16 -41 -42 -134 -84 -134 -12 0
-87 34 -167 76 -86 45 -148 73 -154 67 -18 -18 -78 -147 -72 -155 3 -5 15 0
27 11 29 28 46 26 103 -7 26 -15 89 -49 140 -75 131 -67 174 -63 230 26 26 42
34 107 18 157 -8 24 3 25 32 5 20 -14 22 -12 62 64 23 44 41 85 41 91 0 7 -16
0 -35 -15 -24 -18 -40 -24 -48 -17 -7 5 -75 42 -152 82 -77 40 -154 81 -171
91 l-32 19 -42 -81z"/>
<path d="M4430 6893 c0 -5 7 -18 15 -29 28 -37 33 -32 -170 -139 -60 -31 -119
-66 -130 -76 -29 -28 -26 -107 6 -153 30 -44 96 -83 112 -67 9 9 9 14 0 19 -7
4 -19 23 -27 42 -8 19 -15 37 -17 40 -4 9 21 50 31 50 5 0 32 13 60 30 27 16
50 27 50 24 0 -4 6 -2 13 4 6 5 42 26 79 46 l67 37 32 -65 c28 -57 34 -64 50
-55 24 13 24 14 -11 81 l-30 57 51 27 c55 28 55 39 -1 49 -80 13 -97 19 -137
53 -24 19 -43 30 -43 25z"/>
<path d="M4610 6562 c0 -6 7 -22 15 -38 17 -33 33 -19 -154 -130 -81 -48 -138
-89 -146 -104 -36 -70 29 -183 118 -204 34 -8 34 3 2 50 -29 43 -32 75 -7 96
25 22 262 162 266 157 2 -2 19 -29 38 -60 30 -50 36 -55 51 -44 22 16 22 16
-13 72 -16 26 -30 52 -30 58 0 6 20 21 45 35 25 14 45 27 45 31 0 4 -21 9 -47
13 -93 12 -108 17 -145 47 -21 16 -38 26 -38 21z"/>
<path d="M15449 6375 c-89 -28 -159 -129 -159 -226 0 -91 66 -186 157 -225 50
-21 141 -21 188 2 151 71 186 274 67 386 -69 66 -167 90 -253 63z m97 -111
c143 -65 209 -178 136 -234 -87 -69 -332 60 -332 174 0 17 11 39 30 58 27 27
35 29 79 25 27 -3 66 -13 87 -23z"/>
<path d="M5037 6300 c-33 -26 -36 -71 -7 -100 27 -27 66 -25 96 6 60 59 -23
146 -89 94z"/>
<path d="M4801 6203 c1 -5 1 -23 0 -40 -1 -31 -10 -39 -130 -119 l-129 -86
-30 16 c-36 19 -42 19 -42 7 0 -15 124 -192 135 -194 6 -1 9 14 7 35 -3 35 -1
39 55 75 32 21 60 40 63 43 3 3 41 29 85 58 45 28 96 63 114 76 l33 24 -68 56
c-61 51 -96 69 -93 49z"/>
<path d="M14956 6023 c-61 -17 -102 -57 -260 -253 -74 -93 -89 -117 -63 -107
6 3 28 12 49 21 l36 15 214 -170 c117 -94 214 -176 216 -183 2 -7 -1 -31 -7
-54 -5 -23 -5 -42 0 -42 13 0 190 225 180 228 -5 2 -26 -4 -46 -13 -22 -8 -43
-12 -49 -7 -62 47 -182 146 -184 151 -1 4 8 19 21 33 l23 25 91 -13 c51 -7
122 -15 160 -19 37 -3 77 -8 88 -11 16 -4 32 10 73 61 49 61 70 95 59 95 -2 0
-21 -7 -41 -15 -23 -10 -54 -13 -88 -10 -29 2 -89 7 -133 11 -44 4 -89 8 -100
9 -11 1 -30 3 -42 4 -19 1 -21 4 -13 32 23 78 -16 176 -78 200 -35 14 -82 19
-106 12z m27 -122 c36 -14 76 -61 83 -97 9 -47 -48 -162 -76 -152 -16 5 -189
142 -190 150 0 13 54 71 85 89 33 21 61 24 98 10z"/>
<path d="M4985 5913 c2 -26 -2 -43 -13 -53 -13 -12 -137 -109 -218 -172 -7 -5
-27 -2 -48 7 -53 22 -47 4 34 -97 73 -92 95 -107 84 -60 -4 15 -7 31 -8 36 -2
13 234 196 253 196 10 0 34 -16 54 -35 28 -27 37 -44 37 -70 0 -37 -11 -50
-120 -134 -36 -28 -76 -59 -89 -70 -22 -17 -27 -17 -57 -5 -18 8 -35 10 -38 5
-3 -4 14 -30 37 -58 23 -28 56 -69 72 -91 17 -23 34 -42 39 -42 5 0 6 18 3 40
-5 37 -3 42 36 72 151 116 227 182 235 206 30 87 -44 182 -161 207 l-29 6 26
24 c14 13 26 28 26 32 -1 9 -136 93 -150 93 -5 0 -7 -17 -5 -37z"/>
<path d="M5351 5412 c-47 -23 -72 -61 -78 -116 -6 -49 -8 -51 -48 -36 -29 11
-80 -5 -103 -33 -18 -22 -24 -61 -13 -91 11 -26 4 -28 -51 -11 -27 9 -74 -12
-94 -43 -36 -55 -4 -147 78 -216 118 -102 249 -104 315 -6 41 60 26 110 -62
203 -84 88 -91 101 -71 132 9 14 20 25 25 25 18 0 41 -12 41 -22 0 -15 37 -59
72 -85 42 -31 99 -46 144 -37 45 8 102 62 111 104 5 27 8 30 17 18 6 -8 21
-27 33 -42 l22 -28 22 21 22 20 -61 57 c-34 31 -62 62 -62 68 0 22 -71 96
-111 116 -47 25 -103 25 -148 2z m174 -74 c24 -18 27 -26 22 -61 -7 -50 -33
-86 -83 -114 -61 -33 -107 -14 -120 50 -8 45 56 126 111 140 36 9 42 7 70 -15z
m-335 -313 c62 -64 79 -100 61 -134 -43 -79 -191 -41 -229 59 -20 52 41 141
94 136 9 0 42 -28 74 -61z"/>
<path d="M14538 5281 c-31 -27 -33 -33 -32 -90 l2 -61 -36 31 -36 31 -37 -73
c-50 -97 -50 -102 4 -95 l42 6 107 -112 106 -113 -14 -34 c-17 -39 -17 -41 -5
-41 13 0 196 178 189 185 -2 3 -23 -1 -46 -9 l-40 -15 -101 105 c-56 57 -101
110 -101 118 0 43 42 91 95 109 5 2 1 22 -9 45 -23 51 -43 53 -88 13z"/>
<path d="M14158 4924 c-38 -30 -68 -58 -68 -61 0 -3 19 -2 43 1 l43 7 71 -88
c39 -48 83 -101 97 -118 14 -16 26 -36 26 -44 0 -7 -17 -31 -39 -52 -41 -41
-81 -50 -111 -26 -9 7 -47 50 -85 97 -39 47 -80 96 -92 110 -13 14 -23 28 -23
32 0 25 -45 -5 -139 -90 l-26 -23 43 5 c50 7 44 13 167 -137 49 -60 101 -115
115 -122 36 -19 95 -10 135 20 36 28 75 97 75 133 0 28 15 28 34 0 l16 -22 22
21 c42 37 85 73 104 87 27 20 12 29 -29 18 l-36 -10 -131 159 c-73 87 -135
159 -138 159 -4 0 -37 -25 -74 -56z"/>
<path d="M5939 4921 c26 -24 30 -31 19 -42 -7 -8 -45 -52 -83 -99 -38 -47 -82
-98 -98 -115 -54 -59 -49 -125 15 -179 41 -36 109 -55 145 -42 13 6 10 11 -20
32 -47 32 -69 72 -54 99 8 16 74 96 132 161 6 6 23 28 39 47 l28 37 51 -45
c29 -25 54 -45 57 -45 3 0 10 8 17 18 10 16 5 24 -38 58 -27 21 -49 43 -49 49
1 5 14 26 30 45 37 43 38 53 3 46 -16 -4 -39 -9 -53 -11 -14 -3 -35 -7 -48 -9
-12 -3 -41 2 -63 10 -60 21 -67 18 -30 -15z"/>
<path d="M6392 4904 c3 -16 8 -36 12 -44 3 -9 -12 -40 -42 -80 -27 -36 -108
-148 -181 -250 -73 -102 -135 -184 -137 -182 -11 10 -64 19 -69 13 -5 -9 194
-156 201 -148 3 3 -2 19 -11 37 l-16 31 88 124 c48 68 95 125 104 128 23 6 75
-18 103 -48 40 -43 32 -61 -98 -238 -45 -61 -53 -67 -83 -65 -18 1 -35 -1 -38
-4 -8 -7 188 -147 198 -141 4 3 -1 20 -12 38 l-19 33 49 68 c28 38 55 76 62
84 40 51 87 129 91 154 5 27 -14 77 -38 101 -32 32 -73 49 -132 54 l-65 6 66
90 c131 180 143 199 139 206 -2 4 -35 17 -74 28 -38 12 -77 24 -86 28 -14 5
-16 1 -12 -23z"/>
<path d="M13686 4555 c-162 -58 -213 -252 -99 -384 51 -60 104 -85 183 -85
105 -1 187 57 220 155 41 121 -15 249 -135 305 -56 27 -111 30 -169 9z m58
-69 c90 -37 188 -190 171 -267 -8 -38 -56 -69 -97 -64 -110 14 -245 222 -194
300 28 43 67 53 120 31z"/>
<path d="M13230 4508 c-30 -17 -72 -40 -93 -50 -44 -22 -42 -35 5 -36 52 0 59
-2 55 -9 -3 -5 -8 -48 -12 -98 -4 -49 -8 -99 -10 -110 -1 -11 -3 -32 -4 -47
-1 -33 6 -35 -164 46 l-119 57 26 34 c27 36 31 45 18 45 -15 0 -252 -131 -252
-139 0 -4 20 -9 45 -9 33 -2 88 -23 217 -86 l173 -84 58 -111 58 -110 -31 -43
c-17 -23 -27 -44 -22 -46 6 -2 61 26 124 60 62 35 121 67 131 71 35 13 16 27
-35 24 l-53 -2 -62 113 c-49 90 -62 121 -58 145 2 18 7 52 9 77 27 244 33 281
56 304 18 20 18 37 1 36 -3 0 -31 -15 -61 -32z"/>
<path d="M6770 4291 c-80 -25 -133 -71 -175 -155 -42 -83 -29 -164 35 -232 65
-70 163 -92 250 -58 47 19 45 29 -10 37 -53 7 -127 51 -151 90 -10 18 -19 47
-19 66 0 37 20 101 31 101 3 0 23 -11 43 -25 20 -14 38 -25 40 -25 2 0 40 -22
86 -50 76 -45 85 -48 95 -32 36 52 45 143 20 192 -39 75 -155 118 -245 91z
m148 -61 c29 -28 36 -59 22 -109 l-11 -41 -32 16 c-73 38 -136 84 -132 96 10
24 69 58 100 58 18 0 41 -9 53 -20z"/>
<path d="M7474 4198 c53 -73 50 -63 27 -121 -12 -28 -26 -61 -31 -72 -5 -11
-35 -81 -66 -155 -103 -247 -97 -238 -136 -237 -18 1 -42 -2 -53 -7 -15 -5 19
-23 145 -77 197 -83 226 -91 307 -91 152 1 281 96 333 246 45 133 -2 263 -127
353 -37 26 -387 183 -409 183 -3 0 1 -10 10 -22z m249 -147 c107 -50 158 -119
163 -219 5 -116 -72 -259 -168 -308 -54 -28 -133 -25 -219 8 l-76 30 59 142
c33 77 78 184 99 236 50 120 60 140 71 140 5 0 37 -13 71 -29z"/>
<path d="M8275 3942 c-45 -9 -68 -50 -53 -93 24 -69 131 -48 131 26 0 42 -39
76 -78 67z"/>
<path d="M11732 3894 c-45 -31 -14 -124 41 -124 29 1 65 30 67 55 4 34 1 44
-20 65 -24 24 -57 26 -88 4z"/>
<path d="M12333 3843 c-40 -14 -78 -48 -114 -103 l-16 -25 -17 33 c-10 18 -21
32 -26 30 -14 -5 -130 -110 -130 -118 0 -4 17 -10 38 -13 l37 -6 53 -145 c52
-140 53 -145 37 -170 -10 -14 -22 -26 -28 -26 -8 0 -8 -3 -1 -10 12 -12 222
58 226 75 2 6 -12 11 -30 13 -25 3 -36 10 -44 30 -6 15 -14 36 -19 47 -4 11
-24 66 -45 123 l-36 103 28 24 c38 33 73 43 110 34 35 -10 38 -16 96 -173 33
-90 38 -113 29 -132 -6 -13 -15 -24 -21 -24 -5 0 -10 -7 -10 -16 0 -17 17 -14
75 11 17 8 60 24 98 36 69 24 75 37 17 44 -18 3 -34 6 -35 7 -1 2 -26 70 -55
152 -30 82 -63 160 -75 173 -28 33 -88 44 -142 26z"/>
<path d="M11195 3793 l-89 -45 45 -24 46 -23 12 -86 c7 -47 12 -88 10 -89 -2
-2 -27 -6 -56 -10 -61 -7 -77 -13 -123 -43 -99 -65 -132 -231 -70 -353 56
-109 192 -131 286 -45 l39 36 8 -26 c7 -20 14 -24 35 -21 15 3 47 7 72 11 92
13 107 29 40 40 -22 4 -40 10 -41 13 0 4 -2 16 -4 27 -2 11 -7 40 -10 64 -3
25 -8 47 -10 50 -2 3 -6 29 -9 56 -3 28 -8 61 -11 75 -7 34 -11 58 -30 175 -9
55 -18 107 -20 115 -2 8 -6 40 -10 70 -4 30 -10 60 -14 66 -4 8 -35 -3 -96
-33z m35 -350 c7 -8 23 -86 36 -168 3 -22 9 -58 14 -80 11 -47 4 -57 -50 -75
-110 -36 -191 62 -178 216 6 65 30 103 79 119 33 12 84 5 99 -12z"/>
<path d="M8100 3678 c0 -6 9 -22 19 -37 22 -31 23 -28 -39 -223 -31 -101 -35
-108 -59 -108 -27 0 -59 -15 -51 -23 11 -10 229 -74 235 -69 3 3 -6 18 -20 32
l-26 27 61 189 c33 104 61 196 63 204 2 12 -14 15 -90 16 -54 1 -93 -3 -93 -8z"/>
<path d="M11797 3631 l-79 -55 43 -21 43 -20 38 -139 c20 -76 40 -141 43 -144
3 -3 -9 -21 -27 -39 -40 -41 -32 -41 102 -3 58 17 106 30 107 30 2 0 3 4 3 10
0 5 -16 12 -35 16 -28 5 -36 12 -43 38 -64 228 -106 372 -111 377 -3 3 -41
-19 -84 -50z"/>
<path d="M8515 3598 c-73 -22 -104 -41 -114 -69 -12 -34 3 -49 50 -52 28 -2
33 2 40 26 11 42 28 57 61 57 19 0 40 -10 59 -29 25 -26 28 -35 23 -68 -3 -21
-7 -43 -8 -50 -3 -20 -8 -21 -86 -24 -113 -4 -151 -14 -186 -53 -99 -112 43
-245 185 -172 33 18 42 20 39 9 -5 -18 15 -52 37 -67 35 -23 85 -26 123 -8 40
19 40 29 3 37 -42 9 -54 28 -45 67 4 18 8 35 9 38 1 3 13 56 29 119 15 62 25
124 22 136 -18 71 -154 129 -241 103z m95 -251 c0 -1 -5 -18 -10 -37 -6 -19
-13 -48 -16 -64 -7 -43 -13 -48 -53 -45 -61 4 -91 25 -91 62 0 59 37 86 118
87 28 0 52 -1 52 -3z"/>
<path d="M9049 3516 c-4 -5 -32 -11 -93 -22 -16 -3 -40 -10 -53 -15 l-24 -9
31 -27 c29 -24 31 -29 26 -72 -4 -25 -8 -62 -10 -81 -3 -19 -7 -48 -9 -65 -3
-16 -8 -51 -12 -77 -5 -41 -9 -47 -35 -53 -27 -6 -47 -21 -39 -30 2 -2 31 -6
64 -9 33 -4 71 -8 85 -11 99 -18 112 -14 65 24 -26 19 -26 20 -15 103 5 46 12
94 14 108 3 14 7 45 10 69 6 47 17 60 51 62 11 1 27 2 35 3 43 4 97 -50 85
-86 -2 -7 -6 -31 -9 -53 -10 -83 -19 -151 -22 -165 -1 -8 -3 -22 -3 -30 -1 -9
-14 -21 -31 -27 -35 -13 -40 -33 -7 -34 12 0 31 -2 42 -4 11 -2 49 -7 84 -10
36 -4 69 -9 73 -11 4 -3 8 -1 8 5 0 13 -29 41 -42 41 -9 0 -5 72 7 140 7 38
19 146 17 156 -5 26 78 49 124 33 51 -16 61 -66 39 -189 -3 -14 -7 -47 -10
-75 -9 -73 -12 -79 -45 -92 -46 -17 -36 -30 33 -37 94 -9 150 -17 157 -21 3
-2 12 0 19 4 10 6 5 13 -18 27 -38 23 -40 29 -31 90 5 27 11 74 15 104 3 30 8
67 11 82 10 61 6 108 -9 132 -43 65 -146 78 -225 29 l-48 -29 -23 37 c-41 64
-131 80 -213 38 -23 -12 -45 -21 -47 -21 -3 1 -6 16 -7 33 -3 32 -7 42 -15 35z"/>
<path d="M10603 3443 c-12 -2 -42 -22 -67 -44 -26 -23 -46 -35 -47 -27 -1 27
-8 51 -16 58 -4 4 -39 -7 -78 -26 -38 -18 -74 -36 -80 -38 -5 -3 -3 -9 6 -15
52 -33 58 -45 63 -126 4 -44 8 -112 11 -152 l6 -72 -31 -16 c-55 -28 -36 -37
63 -29 50 4 104 7 120 8 36 1 35 21 -3 35 -16 5 -30 16 -31 23 0 7 -2 27 -3
43 -2 17 -7 77 -11 135 -4 58 -9 108 -11 112 -3 4 8 14 23 21 69 36 135 28
152 -16 5 -13 12 -59 16 -103 3 -43 8 -104 11 -134 5 -53 4 -56 -25 -73 -61
-36 -36 -39 159 -22 19 2 41 4 48 4 24 2 12 19 -18 26 -45 10 -43 3 -55 190
-12 180 -16 194 -68 225 -30 19 -80 24 -134 13z"/>
<path d="M9937 3415 c-203 -51 -235 -347 -49 -448 96 -52 226 -29 293 52 59
72 72 196 29 280 -49 97 -161 144 -273 116z m101 -49 c22 -7 57 -67 67 -113
10 -50 8 -137 -6 -182 -21 -72 -80 -103 -137 -72 -35 19 -63 86 -69 165 -7 88
9 150 47 188 29 28 45 31 98 14z"/>
</g>
</svg>
